<svg width="1448.000000" height="88.000000" viewBox="0 0 1448 88" fill="none" xmlns="http://www.w3.org/2000/svg" xmlns:xlink="http://www.w3.org/1999/xlink">
	<desc>
			Created with Pixso.
	</desc>
	<defs>
		<filter id="filter_0_378_dd" x="0.000000" y="0.000000" width="1448.000000" height="88.000000" filterUnits="userSpaceOnUse" color-interpolation-filters="sRGB">
			<feFlood flood-opacity="0" result="BackgroundImageFix"/>
			<feColorMatrix in="SourceAlpha" type="matrix" values="0 0 0 0 0 0 0 0 0 0 0 0 0 0 0 0 0 0 127 0" result="hardAlpha"/>
			<feOffset dx="0" dy="2"/>
			<feGaussianBlur stdDeviation="1.33333"/>
			<feComposite in2="hardAlpha" operator="out" k2="-1" k3="1"/>
			<feColorMatrix type="matrix" values="0 0 0 0 0 0 0 0 0 0 0 0 0 0 0 0 0 0 0.055 0"/>
			<feBlend mode="normal" in2="BackgroundImageFix" result="effect_dropShadow_1"/>
			<feBlend mode="normal" in="SourceGraphic" in2="effect_dropShadow_1" result="shape"/>
		</filter>
	</defs>
	<rect id="HEADER" width="1440.000000" height="80.000000" transform="translate(4.000000 2.000000)" fill="#FFFFFF" fill-opacity="0"/>
	<g filter="url(#filter_0_378_dd)">
		<rect id="Rectangle" x="4.000000" y="2.000000" width="1440.000000" height="80.000000" fill="#2B3844" fill-opacity="1.000000"/>
		<rect id="Rectangle" x="4.000000" y="2.000000" width="1440.000000" height="80.000000" stroke="#979797" stroke-opacity="0" stroke-width="0.000000"/>
	</g>
	<path id="Where in the world?" d="M173.53 31.38C173.53 32.39 172.64 33.22 171.56 33.22C170.49 33.22 169.6 32.39 169.6 31.38C169.6 30.37 170.49 29.54 171.56 29.54C172.64 29.54 173.53 30.37 173.53 31.38ZM313.98 42.76L310.76 42.76L310.76 42.47C310.76 39.49 311.56 38.58 312.99 37.68C314.04 37.01 314.85 36.27 314.85 35.15C314.85 33.97 313.93 33.2 312.77 33.2C311.66 33.2 310.63 33.94 310.57 35.33L307.1 35.33C307.18 31.92 309.7 30.3 312.79 30.3C316.18 30.3 318.58 32.04 318.58 35.02C318.58 37.03 317.54 38.28 315.94 39.22C314.6 40.03 314 40.81 313.98 42.47L313.98 42.76ZM94.04 48L90.44 48L85.45 30.54L89.48 30.54L92.37 42.67L92.51 42.67L95.7 30.54L99.15 30.54L102.33 42.69L102.49 42.69L105.37 30.54L109.41 30.54L104.41 48L100.82 48L97.49 36.58L97.35 36.58L94.04 48ZM117.46 37.75C115.97 37.75 114.94 38.74 114.94 40.42L114.94 48L111.3 48L111.3 30.54L114.83 30.54L114.83 37.21L114.99 37.21C115.58 35.67 116.91 34.74 118.9 34.74C121.63 34.74 123.43 36.59 123.43 39.66L123.43 48L119.79 48L119.79 40.31C119.8 38.7 118.93 37.75 117.46 37.75ZM212.5 37.75C211.02 37.75 209.99 38.74 209.98 40.42L209.98 48L206.35 48L206.35 30.54L209.88 30.54L209.88 37.21L210.03 37.21C210.63 35.67 211.96 34.74 213.94 34.74C216.67 34.74 218.48 36.59 218.47 39.66L218.47 48L214.84 48L214.84 40.31C214.85 38.7 213.98 37.75 212.5 37.75ZM285.86 30.54L289.49 30.54L289.49 48L285.86 48L285.86 30.54ZM300.93 45.9C300.43 46.99 299.32 48.21 297.21 48.21C294.23 48.21 291.9 45.84 291.9 41.47C291.9 36.97 294.33 34.74 297.2 34.74C299.39 34.74 300.44 36.04 300.93 37.1L301.04 37.1L301.04 30.54L304.66 30.54L304.66 48L301.08 48L301.08 45.9L300.93 45.9ZM201.25 34.91L203.72 34.91L203.72 37.63L201.25 37.63L201.25 43.97C201.25 44.98 201.76 45.25 202.48 45.25C202.82 45.25 203.2 45.16 203.39 45.13L203.95 47.83C203.59 47.95 202.92 48.14 201.98 48.18C199.35 48.28 197.61 47.02 197.63 44.45L197.63 37.63L195.83 37.63L195.83 34.91L197.63 34.91L197.63 31.77L201.25 31.77L201.25 34.91ZM144.26 48L140.63 48L140.63 34.91L144.15 34.91L144.15 37.19L144.29 37.19C144.77 35.57 145.97 34.72 147.43 34.72C147.8 34.72 148.25 34.77 148.58 34.85L148.58 38.06C148.24 37.96 147.54 37.87 147.04 37.87C145.44 37.87 144.26 38.98 144.26 40.59L144.26 48ZM279.68 48L276.05 48L276.05 34.91L279.57 34.91L279.57 37.19L279.7 37.19C280.18 35.57 281.39 34.72 282.85 34.72C283.22 34.72 283.67 34.77 283.99 34.85L283.99 38.06C283.65 37.96 282.96 37.87 282.46 37.87C280.86 37.87 279.68 38.98 279.68 40.59L279.68 48ZM138.19 44.25C137.68 46.68 135.49 48.25 132.25 48.25C128.22 48.25 125.76 45.66 125.76 41.51C125.76 37.47 128.25 34.74 132.11 34.74C135.57 34.74 138.26 36.93 138.26 41.38L138.26 42.38L129.35 42.38L129.35 42.39C129.35 44.34 130.5 45.54 132.32 45.54C133.52 45.54 134.46 45.02 134.83 44.02L138.19 44.25ZM161.73 44.25C161.22 46.68 159.03 48.25 155.79 48.25C151.76 48.25 149.3 45.66 149.3 41.51C149.3 37.47 151.8 34.74 155.65 34.74C159.11 34.74 161.8 36.93 161.8 41.38L161.8 42.38L152.88 42.38L152.88 42.39C152.88 44.34 154.04 45.54 155.86 45.54C157.06 45.54 158 45.02 158.37 44.02L161.73 44.25ZM182.38 37.75C180.91 37.75 179.9 38.74 179.9 40.42L179.9 48L176.26 48L176.26 34.91L179.73 34.91L179.73 37.21L179.88 37.21C180.46 35.69 181.87 34.74 183.82 34.74C186.54 34.74 188.33 36.61 188.33 39.66L188.33 48L184.7 48L184.7 40.31C184.71 38.71 183.83 37.75 182.38 37.75ZM233.23 44.25C232.72 46.68 230.54 48.25 227.3 48.25C223.27 48.25 220.8 45.66 220.8 41.51C220.8 37.47 223.3 34.74 227.16 34.74C230.61 34.74 233.31 36.93 233.31 41.38L233.31 42.38L224.39 42.38L224.39 42.39C224.39 44.34 225.54 45.54 227.36 45.54C228.57 45.54 229.51 45.02 229.87 44.02L233.23 44.25ZM273.68 41.5C273.68 45.53 271.21 48.25 267.24 48.25C263.26 48.25 260.79 45.53 260.79 41.5C260.79 37.44 263.26 34.74 267.24 34.74C271.21 34.74 273.68 37.44 273.68 41.5ZM173.37 48L169.74 48L169.74 34.91L173.37 34.91L173.37 48ZM247.66 48L243.83 48L240.26 34.91L243.94 34.91L245.96 43.7L246.08 43.7L248.2 34.91L251.8 34.91L253.95 43.65L254.06 43.65L256.05 34.91L259.72 34.91L256.16 48L252.32 48L250.07 39.76L249.91 39.76L247.66 48ZM132.17 37.44C130.56 37.44 129.43 38.64 129.35 40.13L134.85 40.13C134.84 38.57 133.75 37.44 132.17 37.44ZM155.71 37.44C154.1 37.44 152.97 38.64 152.88 40.13L158.39 40.13C158.38 38.57 157.28 37.44 155.71 37.44ZM227.21 37.44C225.6 37.44 224.47 38.64 224.39 40.13L229.89 40.13C229.88 38.57 228.79 37.44 227.21 37.44ZM264.48 41.47C264.48 43.76 265.42 45.44 267.26 45.44C269.05 45.44 269.99 43.76 269.99 41.47C269.99 39.19 269.05 37.5 267.26 37.5C265.42 37.5 264.48 39.19 264.48 41.47ZM295.61 41.45C295.61 43.74 296.58 45.32 298.36 45.32C300.11 45.32 301.12 43.78 301.12 41.45C301.12 39.11 300.13 37.62 298.36 37.62C296.56 37.62 295.61 39.18 295.61 41.45ZM314.48 46.17C314.47 47.3 313.52 48.22 312.43 48.22C311.31 48.22 310.38 47.3 310.39 46.17C310.38 45.05 311.31 44.15 312.43 44.15C313.52 44.15 314.47 45.05 314.48 46.17Z" fill="#FFFFFF" fill-opacity="1.000000" fill-rule="evenodd"/>
</svg>
